<?xml version="1.0" encoding="UTF-8" standalone="no"?>
<!-- Created with Inkscape (http://www.inkscape.org/) -->

<svg
   version="1.1"
   id="svg1"
   width="1018.5142"
   height="678.63562"
   viewBox="0 0 1018.5142 678.63562"
   sodipodi:docname="Wing_Geometry.svg"
   inkscape:version="1.3 (0e150ed6c4, 2023-07-21)"
   xmlns:inkscape="http://www.inkscape.org/namespaces/inkscape"
   xmlns:sodipodi="http://sodipodi.sourceforge.net/DTD/sodipodi-0.dtd"
   xmlns="http://www.w3.org/2000/svg"
   xmlns:svg="http://www.w3.org/2000/svg">
  <defs
     id="defs1">
    <clipPath
       clipPathUnits="userSpaceOnUse"
       id="clipPath3">
      <path
         d="m 51.68,86.613 h 12.365 v 76.269 H 51.68 Z"
         transform="translate(-60.697001,-133.487)"
         id="path3" />
    </clipPath>
    <clipPath
       clipPathUnits="userSpaceOnUse"
       id="clipPath9">
      <path
         d="m 51.68,86.613 h 12.365 v 76.269 H 51.68 Z"
         transform="translate(-55.432001,-152.39201)"
         id="path9" />
    </clipPath>
    <clipPath
       clipPathUnits="userSpaceOnUse"
       id="clipPath14">
      <path
         d="m 51.68,86.613 h 12.365 v 76.269 H 51.68 Z"
         transform="translate(-56.444002,-114.36101)"
         id="path14" />
    </clipPath>
  </defs>
  <sodipodi:namedview
     id="namedview1"
     pagecolor="#505050"
     bordercolor="#ffffff"
     borderopacity="1"
     inkscape:showpageshadow="0"
     inkscape:pageopacity="0"
     inkscape:pagecheckerboard="1"
     inkscape:deskcolor="#505050"
     inkscape:zoom="2.5374442"
     inkscape:cx="318.6277"
     inkscape:cy="392.718"
     inkscape:window-width="1920"
     inkscape:window-height="1057"
     inkscape:window-x="-8"
     inkscape:window-y="-8"
     inkscape:window-maximized="1"
     inkscape:current-layer="g1">
    <inkscape:page
       x="0"
       y="0"
       inkscape:label="77"
       id="page1"
       width="1018.5142"
       height="678.63562"
       margin="-31.61311 -52.227142 201.27202 63.261047"
       bleed="0" />
  </sodipodi:namedview>
  <g
     id="g1"
     inkscape:groupmode="layer"
     inkscape:label="77">
    <path
       id="path1"
       d="m 0,0 h 58.73 c 0.621,0 1.125,-0.503 1.125,-1.125 0,-0.621 -0.504,-1.125 -1.125,-1.125 H 0 c -0.622,0 -1.125,0.504 -1.125,1.125 C -1.125,-0.503 -0.622,0 0,0 Z m 1.125,-4.5 -6.75,3.375 6.75,3.375 z m 56.48,6.75 6.75,-3.375 -6.75,-3.375"
       style="fill:#ed1d24;fill-opacity:1;fill-rule:nonzero;stroke:none"
       transform="matrix(0,1.3333333,1.3333333,0,215.2857,360.79736)" />
    <path
       id="path15"
       d="m 0,0 48,-163.127 h 57.75 L 85.5,0"
       style="fill:none;stroke:#231f20;stroke-width:1.5;stroke-linecap:round;stroke-linejoin:round;stroke-miterlimit:10;stroke-dasharray:none;stroke-opacity:1"
       transform="matrix(0,1.3333333,1.3333333,0,343.15103,315.79602)" />
    <path
       id="path16"
       d="m 0,0 75.5,0.11 c 0.207,0.001 0.375,-0.167 0.375,-0.374 0.001,-0.207 -0.167,-0.375 -0.374,-0.376 l -75.5,-0.11 c -0.207,0 -0.375,0.167 -0.375,0.374 C -0.375,-0.169 -0.207,0 0,0 Z M 1.005,-3.374 -5,-0.382 0.996,2.626 Z M 74.496,2.734 80.5,-0.257 74.505,-3.266"
       style="fill:#231f20;fill-opacity:1;fill-rule:nonzero;stroke:none"
       transform="matrix(0,1.3333333,1.3333333,0,598.66303,322.46269)" />
    <path
       id="path17"
       d="m 0,0 -38.633,0.122 c -0.207,0.001 -0.375,0.169 -0.374,0.377 10e-4,0.207 0.169,0.374 0.376,0.373 L 0.002,0.75 C 0.209,0.749 0.376,0.581 0.376,0.374 0.375,0.166 0.207,-0.001 0,0 Z m -32.833,-3.345 -6.543,3.845 6.567,3.803 c 0.179,0.104 0.409,0.042 0.513,-0.137 0.103,-0.179 0.042,-0.408 -0.137,-0.512 l -6.011,-3.481 0.002,0.648 5.989,-3.519 c 0.178,-0.105 0.238,-0.335 0.133,-0.514 -0.105,-0.178 -0.335,-0.238 -0.513,-0.133"
       style="fill:#231f20;fill-opacity:1;fill-rule:nonzero;stroke:none"
       transform="matrix(0,1.3333333,1.3333333,0,342.56703,285.87735)" />
    <path
       id="path18"
       d="m 0,0 48,163.127 h 57.75 L 85.5,0"
       style="fill:none;stroke:#231f20;stroke-width:1.5;stroke-linecap:round;stroke-linejoin:round;stroke-miterlimit:10;stroke-dasharray:none;stroke-opacity:1"
       transform="matrix(0,1.3333333,1.3333333,0,343.1497,315.79602)" />
    <path
       id="path19"
       d="m 0,0 -1.082,-4.368 c -0.099,-0.402 -0.506,-0.647 -0.908,-0.548 -0.402,0.1 -0.647,0.507 -0.548,0.909 l 1.082,4.368 c 0.1,0.402 0.507,0.647 0.909,0.547 C -0.145,0.809 0.1,0.402 0,0 Z m -2.524,-10.192 -1.082,-4.368 c -0.1,-0.402 -0.507,-0.647 -0.909,-0.548 -0.402,0.1 -0.647,0.507 -0.547,0.909 l 1.082,4.368 c 0.099,0.402 0.506,0.647 0.908,0.547 0.402,-0.099 0.647,-0.506 0.548,-0.908 z m -2.525,-10.192 -1.082,-4.368 c -0.099,-0.402 -0.506,-0.647 -0.908,-0.548 -0.402,0.1 -0.647,0.507 -0.548,0.909 l 1.082,4.368 c 0.1,0.402 0.506,0.647 0.908,0.547 0.402,-0.099 0.648,-0.506 0.548,-0.908 z m -2.524,-10.192 -1.082,-4.368 c -0.1,-0.402 -0.507,-0.647 -0.909,-0.548 -0.402,0.1 -0.647,0.507 -0.547,0.909 l 1.082,4.368 c 0.099,0.402 0.506,0.647 0.908,0.547 0.402,-0.099 0.647,-0.506 0.548,-0.908 z m -2.525,-10.192 -1.082,-4.368 c -0.1,-0.402 -0.506,-0.647 -0.908,-0.548 -0.402,0.1 -0.648,0.507 -0.548,0.909 l 1.082,4.368 c 0.099,0.402 0.506,0.647 0.908,0.547 0.402,-0.099 0.648,-0.506 0.548,-0.908 z m -2.525,-10.192 -1.082,-4.368 c -0.099,-0.402 -0.506,-0.647 -0.908,-0.548 -0.402,0.1 -0.647,0.507 -0.548,0.909 l 1.082,4.368 c 0.1,0.402 0.507,0.647 0.909,0.547 0.402,-0.099 0.647,-0.506 0.547,-0.908 z m -2.524,-10.192 -1.082,-4.368 c -0.1,-0.402 -0.507,-0.647 -0.909,-0.548 -0.402,0.1 -0.647,0.507 -0.547,0.909 l 1.082,4.368 c 0.099,0.402 0.506,0.647 0.908,0.547 0.402,-0.099 0.647,-0.506 0.548,-0.908 z m -2.525,-10.192 -1.082,-4.368 c -0.099,-0.402 -0.506,-0.647 -0.908,-0.547 -0.402,0.099 -0.647,0.506 -0.548,0.908 l 1.082,4.368 c 0.1,0.402 0.506,0.647 0.908,0.547 0.403,-0.099 0.648,-0.506 0.548,-0.908 z m -2.525,-10.192 -1.081,-4.368 c -0.1,-0.402 -0.507,-0.647 -0.909,-0.547 -0.402,0.099 -0.647,0.506 -0.548,0.908 l 1.082,4.368 c 0.1,0.402 0.507,0.647 0.909,0.548 0.402,-0.1 0.647,-0.507 0.547,-0.909 z m -2.524,-10.192 -1.082,-4.368 c -0.1,-0.402 -0.506,-0.647 -0.908,-0.547 -0.403,0.099 -0.648,0.506 -0.548,0.908 l 1.082,4.368 c 0.099,0.402 0.506,0.647 0.908,0.548 0.402,-0.1 0.647,-0.507 0.548,-0.909 z m -2.525,-10.192 -1.082,-4.368 c -0.099,-0.402 -0.506,-0.647 -0.908,-0.547 -0.402,0.099 -0.647,0.506 -0.548,0.908 l 1.082,4.368 c 0.1,0.402 0.506,0.647 0.909,0.548 0.402,-0.1 0.647,-0.507 0.547,-0.909 z m -2.524,-10.192 -1.082,-4.368 c -0.1,-0.402 -0.507,-0.647 -0.909,-0.547 -0.402,0.099 -0.647,0.506 -0.547,0.908 l 1.082,4.368 c 0.099,0.402 0.506,0.647 0.908,0.548 0.402,-0.1 0.647,-0.507 0.548,-0.909 z m -2.525,-10.192 -1.082,-4.368 c -0.1,-0.402 -0.506,-0.647 -0.908,-0.547 -0.402,0.099 -0.648,0.506 -0.548,0.908 l 1.082,4.368 c 0.1,0.402 0.506,0.647 0.908,0.548 0.402,-0.1 0.648,-0.507 0.548,-0.909 z m -2.525,-10.192 -1.082,-4.368 c -0.099,-0.402 -0.506,-0.647 -0.908,-0.547 -0.402,0.099 -0.647,0.506 -0.548,0.908 l 1.082,4.368 c 0.1,0.402 0.507,0.647 0.909,0.548 0.402,-0.1 0.647,-0.507 0.547,-0.909 z m -2.524,-10.192 -1.082,-4.368 c -0.1,-0.402 -0.506,-0.647 -0.909,-0.547 -0.402,0.099 -0.647,0.506 -0.547,0.908 l 1.082,4.368 c 0.099,0.402 0.506,0.647 0.908,0.548 0.402,-0.1 0.647,-0.507 0.548,-0.909 z m -2.525,-10.192 -1.082,-4.368 c -0.099,-0.402 -0.506,-0.647 -0.908,-0.547 -0.402,0.099 -0.647,0.506 -0.548,0.908 l 1.082,4.368 c 0.1,0.402 0.506,0.647 0.909,0.548 0.402,-0.1 0.647,-0.507 0.547,-0.909 z m -2.524,-10.192 -0.107,-0.428 c -0.099,-0.402 -0.506,-0.647 -0.908,-0.548 -0.402,0.1 -0.647,0.507 -0.548,0.909 l 0.107,0.428 c 0.099,0.402 0.506,0.647 0.908,0.548 0.402,-0.1 0.647,-0.507 0.548,-0.909"
       style="fill:#231f20;fill-opacity:1;fill-rule:nonzero;stroke:none"
       transform="matrix(0,1.3333333,1.3333333,0,560.4137,401.76669)" />
    <path
       id="path20"
       d="M 0,0 0.125,208.126"
       style="fill:none;stroke:#231f20;stroke-width:0.75;stroke-linecap:round;stroke-linejoin:round;stroke-miterlimit:10;stroke-dasharray:none;stroke-opacity:1"
       transform="matrix(0,1.3333333,1.3333333,0,343.15103,315.79602)" />
    <path
       id="path21"
       d="M 0,0 0.125,208.126"
       style="fill:none;stroke:#231f20;stroke-width:0.75;stroke-linecap:round;stroke-linejoin:round;stroke-miterlimit:10;stroke-dasharray:none;stroke-opacity:1"
       transform="matrix(0,1.3333333,1.3333333,0,343.1497,430.29735)" />
    <path
       id="path22"
       d="M 0,0 0.002,-37.123"
       style="fill:none;stroke:#231f20;stroke-width:0.75;stroke-linecap:round;stroke-linejoin:round;stroke-miterlimit:10;stroke-dasharray:none;stroke-opacity:1"
       transform="matrix(0,1.3333333,1.3333333,0,125.64836,379.79602)" />
    <path
       id="path23"
       d="M 0,0 0.001,-37.123"
       style="fill:none;stroke:#231f20;stroke-width:0.75;stroke-linecap:round;stroke-linejoin:round;stroke-miterlimit:10;stroke-dasharray:none;stroke-opacity:1"
       transform="matrix(0,1.3333333,1.3333333,0,125.6457,457.29735)" />
    <path
       id="path24"
       d="m 0,0 48.875,-0.104 c 0.207,0 0.374,-0.169 0.374,-0.376 -0.001,-0.207 -0.169,-0.374 -0.376,-0.374 L -0.002,-0.75 c -0.207,0 -0.375,0.169 -0.374,0.376 C -0.376,-0.167 -0.207,0 0,0 Z m 0.993,-3.377 -5.994,3.012 6.006,2.988 z m 46.887,5.9 5.994,-3.013 -6.007,-2.987"
       style="fill:#231f20;fill-opacity:1;fill-rule:nonzero;stroke:none"
       transform="matrix(0,1.3333333,1.3333333,0,96.217695,385.54935)" />
    <path
       id="path25"
       d="m 0,0 0.123,38.633 c 0.001,0.207 0.169,0.375 0.376,0.374 0.207,-10e-4 0.375,-0.169 0.374,-0.376 L 0.75,-0.002 C 0.75,-0.209 0.581,-0.376 0.374,-0.376 0.167,-0.375 0,-0.207 0,0 Z M -3.344,32.833 0.5,39.376 4.303,32.809 C 4.407,32.63 4.346,32.4 4.167,32.296 3.988,32.193 3.758,32.254 3.654,32.433 l -3.481,6.011 0.648,-0.002 -3.519,-5.989 c -0.105,-0.178 -0.334,-0.238 -0.513,-0.133 -0.179,0.105 -0.238,0.335 -0.133,0.513"
       style="fill:#231f20;fill-opacity:1;fill-rule:nonzero;stroke:none"
       transform="matrix(0,1.3333333,1.3333333,0,343.15103,285.29469)" />
    <path
       id="path26"
       d="M 0,0 85.5,-0.125"
       style="fill:none;stroke:#231f20;stroke-width:0.75;stroke-linecap:round;stroke-linejoin:round;stroke-miterlimit:10;stroke-dasharray:none;stroke-opacity:1"
       transform="matrix(0,1.3333333,1.3333333,0,343.31636,315.79602)" />
    <path
       id="path27"
       d="m 0,0 64.25,0.108 c 0.207,0.001 0.375,0.169 0.374,0.376 0,0.207 -0.168,0.375 -0.375,0.374 L -0.001,0.75 C -0.208,0.75 -0.376,0.582 -0.375,0.375 -0.375,0.167 -0.207,0 0,0 Z M 0.994,3.377 -5,0.367 1.005,-2.623 Z m 62.261,-5.895 5.994,3.01 -6.005,2.99"
       style="fill:#231f20;fill-opacity:1;fill-rule:nonzero;stroke:none"
       transform="matrix(0,1.3333333,1.3333333,0,258.9937,346.96402)" />
    <path
       id="path28"
       d="M 0,0 48.376,0.125"
       style="fill:none;stroke:#231f20;stroke-width:0.75;stroke-linecap:round;stroke-linejoin:round;stroke-miterlimit:10;stroke-dasharray:none;stroke-opacity:1"
       transform="matrix(0,1.3333333,1.3333333,0,125.64836,456.79602)" />
    <path
       id="path29"
       d="M 0,0 48.375,0.125"
       style="fill:none;stroke:#231f20;stroke-width:0.75;stroke-linecap:round;stroke-linejoin:round;stroke-miterlimit:10;stroke-dasharray:none;stroke-opacity:1"
       transform="matrix(0,1.3333333,1.3333333,0,560.48703,457.38135)" />
    <path
       id="path30"
       d="m 0,0 -0.121,-316.503 c -0.001,-0.207 -0.169,-0.375 -0.376,-0.375 -0.207,0 -0.375,0.168 -0.374,0.375 L -0.75,0.001 c 0,0.207 0.168,0.375 0.375,0.374 C -0.168,0.375 0,0.207 0,0 Z M -3.376,-0.999 -0.373,5 2.624,-1.001 Z m 5.88,-314.504 -3.002,-5.999 -2.998,6.001"
       style="fill:#231f20;fill-opacity:1;fill-rule:nonzero;stroke:none"
       transform="matrix(0,1.3333333,1.3333333,0,553.82036,489.96135)" />
    <path
       id="path31"
       d="M 0,0 0.001,0.002 C 0.094,0.405 0.496,0.657 0.9,0.565 1.303,0.472 1.556,0.069 1.463,-0.334 L 1.462,-0.336 C 1.37,-0.74 0.967,-0.992 0.563,-0.899 0.16,-0.806 -0.092,-0.404 0,0 Z M 0.673,2.925 V 2.927 C 0.766,3.331 1.168,3.583 1.572,3.49 1.976,3.397 2.228,2.994 2.135,2.591 V 2.589 C 2.042,2.186 1.639,1.934 1.236,2.026 0.832,2.119 0.58,2.522 0.673,2.925 Z M 1.345,5.851 1.346,5.852 C 1.439,6.256 1.841,6.508 2.245,6.415 2.648,6.322 2.9,5.92 2.808,5.516 L 2.807,5.514 C 2.714,5.111 2.312,4.859 1.908,4.952 1.505,5.044 1.253,5.447 1.345,5.851 Z M 2.018,8.776 V 8.777 C 2.111,9.181 2.513,9.433 2.917,9.34 3.321,9.247 3.573,8.845 3.48,8.441 V 8.44 C 3.387,8.036 2.984,7.784 2.581,7.877 2.177,7.97 1.925,8.372 2.018,8.776 Z m 0.672,2.925 10e-4,0.002 c 0.093,0.403 0.495,0.655 0.899,0.562 0.403,-0.093 0.655,-0.495 0.562,-0.899 V 11.365 C 4.059,10.961 3.657,10.709 3.253,10.802 2.849,10.895 2.597,11.297 2.69,11.701 Z m 0.673,2.925 v 0.002 c 0.093,0.403 0.495,0.655 0.899,0.563 0.404,-0.093 0.656,-0.496 0.563,-0.9 V 14.29 C 4.732,13.886 4.329,13.634 3.926,13.727 3.522,13.82 3.27,14.223 3.363,14.626 Z m 0.672,2.925 v 0.002 c 0.093,0.404 0.496,0.656 0.9,0.563 C 5.338,18.023 5.59,17.62 5.497,17.217 V 17.215 C 5.404,16.812 5.002,16.56 4.598,16.652 4.194,16.745 3.942,17.148 4.035,17.551 Z m 0.673,2.926 v 0.001 c 0.093,0.404 0.495,0.656 0.899,0.563 0.404,-0.093 0.656,-0.495 0.563,-0.899 L 6.169,20.14 C 6.077,19.737 5.674,19.485 5.27,19.578 4.867,19.67 4.615,20.073 4.708,20.477 Z m 0.672,2.925 v 10e-4 c 0.093,0.404 0.496,0.656 0.899,0.563 0.404,-0.093 0.656,-0.495 0.563,-0.899 V 23.066 C 6.749,22.662 6.347,22.41 5.943,22.503 5.539,22.596 5.287,22.998 5.38,23.402 Z m 0.672,2.925 0.001,10e-4 c 0.093,0.404 0.495,0.656 0.899,0.563 0.403,-0.092 0.656,-0.495 0.563,-0.899 L 7.514,25.991 C 7.422,25.587 7.019,25.335 6.616,25.428 6.212,25.521 5.96,25.923 6.052,26.327 Z m 0.673,2.925 v 0.002 c 0.093,0.403 0.495,0.655 0.899,0.563 0.404,-0.093 0.656,-0.496 0.563,-0.899 V 28.916 C 8.094,28.512 7.692,28.26 7.288,28.353 6.884,28.446 6.632,28.848 6.725,29.252 Z m 0.672,2.925 10e-4,0.002 c 0.093,0.403 0.495,0.655 0.899,0.563 C 8.7,32.649 8.952,32.247 8.86,31.843 L 8.859,31.841 C 8.767,31.438 8.364,31.186 7.96,31.278 7.557,31.371 7.305,31.774 7.397,32.177 Z m 0.673,2.925 v 0.002 c 0.093,0.404 0.495,0.656 0.899,0.563 0.404,-0.093 0.656,-0.495 0.563,-0.899 V 34.767 C 9.439,34.363 9.037,34.111 8.633,34.204 8.229,34.296 7.977,34.699 8.07,35.102 Z m 0.672,2.926 10e-4,0.001 c 0.092,0.404 0.495,0.656 0.899,0.563 0.403,-0.093 0.655,-0.495 0.563,-0.899 L 10.204,37.692 C 10.111,37.288 9.709,37.036 9.305,37.129 8.902,37.222 8.65,37.624 8.742,38.028 Z m 0.673,2.925 v 10e-4 c 0.093,0.404 0.495,0.656 0.899,0.563 0.404,-0.092 0.656,-0.495 0.563,-0.899 V 40.617 C 10.784,40.213 10.381,39.961 9.978,40.054 9.574,40.147 9.322,40.549 9.415,40.953 Z m 0.672,2.925 v 0.002 c 0.093,0.403 0.496,0.655 0.9,0.563 0.403,-0.093 0.655,-0.496 0.562,-0.899 v -0.002 c -0.093,-0.404 -0.495,-0.656 -0.899,-0.563 -0.404,0.093 -0.656,0.495 -0.563,0.899 z m 0.673,2.925 v 0.002 c 0.093,0.403 0.495,0.656 0.899,0.563 0.404,-0.093 0.656,-0.495 0.563,-0.899 v -0.002 c -0.093,-0.403 -0.496,-0.655 -0.899,-0.563 -0.404,0.093 -0.656,0.496 -0.563,0.899 z m 0.672,2.926 v 10e-4 c 0.093,0.404 0.496,0.656 0.899,0.563 0.404,-0.093 0.656,-0.495 0.563,-0.899 v -10e-4 c -0.093,-0.404 -0.495,-0.656 -0.899,-0.563 -0.404,0.092 -0.656,0.495 -0.563,0.899 z m 0.673,2.925 v 10e-4 c 0.093,0.404 0.495,0.656 0.899,0.563 0.404,-0.093 0.656,-0.495 0.563,-0.899 v -0.001 c -0.093,-0.404 -0.496,-0.656 -0.899,-0.563 -0.404,0.093 -0.656,0.495 -0.563,0.899 z m 0.672,2.925 v 10e-4 c 0.093,0.404 0.496,0.656 0.899,0.563 0.404,-0.092 0.656,-0.495 0.563,-0.899 v -10e-4 c -0.093,-0.404 -0.495,-0.656 -0.899,-0.563 -0.404,0.093 -0.656,0.495 -0.563,0.899 z m 0.672,2.925 10e-4,0.002 c 0.093,0.403 0.495,0.655 0.899,0.563 0.403,-0.093 0.655,-0.496 0.563,-0.899 l -0.001,-0.002 c -0.092,-0.404 -0.495,-0.656 -0.899,-0.563 -0.403,0.093 -0.655,0.495 -0.563,0.899 z m 0.673,2.925 v 0.002 c 0.093,0.403 0.495,0.656 0.899,0.563 0.404,-0.093 0.656,-0.495 0.563,-0.899 v -0.002 c -0.093,-0.403 -0.495,-0.655 -0.899,-0.563 -0.404,0.093 -0.656,0.496 -0.563,0.899 z m 0.672,2.926 10e-4,10e-4 c 0.093,0.404 0.495,0.656 0.899,0.563 0.403,-0.093 0.655,-0.495 0.563,-0.899 l -0.001,-10e-4 c -0.092,-0.404 -0.495,-0.656 -0.899,-0.563 -0.403,0.092 -0.655,0.495 -0.563,0.899 z m 0.673,2.925 v 0.001 c 0.093,0.404 0.495,0.656 0.899,0.563 0.404,-0.093 0.656,-0.495 0.563,-0.899 v -10e-4 c -0.093,-0.404 -0.495,-0.656 -0.899,-0.563 -0.404,0.093 -0.656,0.495 -0.563,0.899 z m 0.672,2.925 0.001,0.001 c 0.092,0.404 0.495,0.656 0.899,0.563 0.403,-0.092 0.655,-0.495 0.563,-0.899 l -0.001,-0.001 c -0.093,-0.404 -0.495,-0.656 -0.899,-0.563 -0.403,0.093 -0.655,0.495 -0.563,0.899 z m 0.673,2.925 v 0.002 c 0.093,0.403 0.495,0.655 0.899,0.563 0.404,-0.093 0.656,-0.496 0.563,-0.899 v -0.002 c -0.093,-0.404 -0.496,-0.656 -0.899,-0.563 -0.404,0.093 -0.656,0.495 -0.563,0.899 z m 0.672,2.925 10e-4,0.002 c 0.092,0.403 0.495,0.656 0.898,0.563 0.404,-0.093 0.656,-0.495 0.563,-0.899 v -0.002 c -0.093,-0.403 -0.495,-0.655 -0.899,-0.563 -0.404,0.093 -0.656,0.496 -0.563,0.899 z m 0.673,2.926 v 0.001 c 0.093,0.404 0.495,0.656 0.899,0.563 0.404,-0.093 0.656,-0.495 0.563,-0.899 v -0.001 c -0.093,-0.404 -0.496,-0.656 -0.899,-0.563 -0.404,0.092 -0.656,0.495 -0.563,0.899 z m 0.672,2.925 v 10e-4 c 0.093,0.404 0.496,0.656 0.899,0.563 0.404,-0.093 0.656,-0.495 0.563,-0.899 V 81.57 c -0.093,-0.404 -0.495,-0.656 -0.899,-0.563 -0.404,0.093 -0.656,0.495 -0.563,0.899 z m 0.672,2.924 10e-4,0.002 c 0.092,0.404 0.494,0.656 0.898,0.563 0.404,-0.092 0.656,-0.494 0.564,-0.898 v -0.001 c -0.093,-0.404 -0.495,-0.657 -0.899,-0.564 -0.404,0.092 -0.656,0.495 -0.564,0.898 z m 0.673,2.926 v 0.001 c 0.093,0.404 0.495,0.656 0.899,0.564 0.403,-0.093 0.656,-0.495 0.563,-0.899 v -10e-4 c -0.093,-0.404 -0.495,-0.656 -0.899,-0.564 -0.403,0.093 -0.656,0.495 -0.563,0.899 z m 0.672,2.925 0.001,0.002 c 0.093,0.404 0.495,0.656 0.899,0.563 0.403,-0.093 0.655,-0.496 0.563,-0.899 l -0.001,-0.002 c -0.093,-0.403 -0.495,-0.655 -0.899,-0.563 -0.403,0.093 -0.655,0.496 -0.563,0.899 z m 0.673,2.926 v 0.001 c 0.093,0.404 0.495,0.656 0.899,0.563 0.404,-0.093 0.656,-0.495 0.563,-0.899 v -0.001 c -0.093,-0.404 -0.495,-0.656 -0.899,-0.563 -0.404,0.092 -0.656,0.495 -0.563,0.899 z m 0.672,2.925 0.001,0.001 c 0.092,0.404 0.495,0.656 0.899,0.563 0.403,-0.093 0.655,-0.495 0.563,-0.899 l -0.001,-0.001 c -0.093,-0.404 -0.495,-0.656 -0.899,-0.563 -0.403,0.093 -0.655,0.495 -0.563,0.899 z m 0.673,2.925 v 0.001 c 0.093,0.404 0.495,0.656 0.899,0.563 0.404,-0.092 0.656,-0.495 0.563,-0.899 v -0.001 c -0.093,-0.404 -0.496,-0.656 -0.899,-0.563 -0.404,0.093 -0.656,0.495 -0.563,0.899 z m 0.672,2.925 10e-4,0.002 c 0.092,0.403 0.495,0.655 0.898,0.563 0.404,-0.093 0.656,-0.496 0.564,-0.899 l -10e-4,-0.002 c -0.093,-0.404 -0.495,-0.656 -0.899,-0.563 -0.404,0.093 -0.655,0.496 -0.563,0.899 z m 0.673,2.925 v 0.002 c 0.093,0.404 0.495,0.656 0.899,0.563 0.404,-0.093 0.656,-0.495 0.563,-0.899 v -0.002 c -0.093,-0.403 -0.496,-0.655 -0.899,-0.563 -0.404,0.093 -0.656,0.496 -0.563,0.899 z m 0.672,2.926 0.001,10e-4 c 0.092,0.404 0.495,0.656 0.898,0.563 0.404,-0.093 0.656,-0.495 0.563,-0.899 v -10e-4 c -0.093,-0.404 -0.495,-0.656 -0.899,-0.563 -0.404,0.092 -0.656,0.495 -0.563,0.899 z m 0.673,2.925 v 0.001 c 0.093,0.404 0.495,0.656 0.899,0.563 0.404,-0.093 0.656,-0.495 0.563,-0.899 v -10e-4 c -0.093,-0.404 -0.496,-0.656 -0.9,-0.563 -0.403,0.093 -0.655,0.495 -0.562,0.899 z m 0.672,2.925 v 0.001 c 0.093,0.404 0.496,0.656 0.899,0.563 0.404,-0.092 0.656,-0.495 0.563,-0.899 v -0.001 c -0.093,-0.404 -0.495,-0.656 -0.899,-0.563 -0.404,0.093 -0.656,0.495 -0.563,0.899 z m 0.673,2.925 v 0.002 c 0.093,0.403 0.495,0.655 0.899,0.563 0.404,-0.093 0.655,-0.496 0.563,-0.899 l -0.001,-0.002 c -0.092,-0.404 -0.495,-0.656 -0.899,-0.563 -0.403,0.093 -0.655,0.496 -0.562,0.899 z m 0.672,2.925 v 0.002 c 0.093,0.404 0.496,0.656 0.899,0.563 0.404,-0.093 0.656,-0.495 0.563,-0.899 v -0.002 c -0.093,-0.403 -0.495,-0.655 -0.899,-0.563 -0.404,0.093 -0.656,0.496 -0.563,0.899 z m 0.672,2.926 0.001,0.001 c 0.092,0.404 0.495,0.656 0.899,0.563 0.403,-0.093 0.655,-0.495 0.563,-0.899 l -0.001,-0.001 c -0.093,-0.404 -0.495,-0.656 -0.899,-0.563 -0.403,0.092 -0.655,0.495 -0.563,0.899 z m 0.673,2.925 v 10e-4 c 0.093,0.404 0.496,0.656 0.899,0.563 0.404,-0.093 0.656,-0.495 0.563,-0.899 v -0.001 c -0.093,-0.404 -0.495,-0.656 -0.899,-0.563 -0.404,0.093 -0.656,0.495 -0.563,0.899 z m 0.672,2.925 10e-4,0.001 c 0.092,0.404 0.495,0.656 0.899,0.563 0.403,-0.092 0.655,-0.495 0.563,-0.899 l -10e-4,-0.001 c -0.093,-0.404 -0.495,-0.656 -0.899,-0.563 -0.403,0.093 -0.655,0.495 -0.563,0.899 z m 0.673,2.925 v 0.002 c 0.093,0.403 0.495,0.655 0.899,0.563 0.404,-0.093 0.656,-0.496 0.563,-0.899 v -0.002 c -0.093,-0.404 -0.496,-0.656 -0.899,-0.563 -0.404,0.093 -0.656,0.496 -0.563,0.899 z m 0.672,2.925 0.001,0.002 c 0.092,0.404 0.495,0.656 0.898,0.563 0.404,-0.093 0.656,-0.495 0.563,-0.899 v -0.002 c -0.093,-0.403 -0.495,-0.655 -0.899,-0.563 -0.404,0.093 -0.656,0.496 -0.563,0.899 z m 0.673,2.926 v 10e-4 c 0.093,0.404 0.495,0.656 0.899,0.563 0.404,-0.093 0.656,-0.495 0.563,-0.899 v -0.001 c -0.093,-0.404 -0.496,-0.656 -0.899,-0.563 -0.404,0.092 -0.656,0.495 -0.563,0.899 z m 0.672,2.925 0.001,0.001 c 0.092,0.404 0.495,0.656 0.898,0.563 0.404,-0.093 0.656,-0.495 0.563,-0.899 v -10e-4 c -0.093,-0.404 -0.495,-0.656 -0.899,-0.563 -0.404,0.093 -0.656,0.495 -0.563,0.899 z m 0.673,2.925 v 0.001 c 0.093,0.404 0.495,0.656 0.899,0.563 0.404,-0.092 0.656,-0.495 0.563,-0.899 l -10e-4,-0.001 c -0.092,-0.404 -0.495,-0.656 -0.899,-0.563 -0.403,0.093 -0.655,0.495 -0.562,0.899 z m 0.672,2.925 v 0.002 c 0.093,0.403 0.496,0.655 0.899,0.563 0.404,-0.093 0.656,-0.496 0.563,-0.899 v -0.002 c -0.093,-0.404 -0.495,-0.656 -0.899,-0.563 -0.404,0.093 -0.656,0.496 -0.563,0.899 z m 0.673,2.925 v 0.002 c 0.093,0.404 0.495,0.656 0.899,0.563 0.403,-0.093 0.655,-0.495 0.563,-0.899 l -0.001,-0.002 c -0.092,-0.403 -0.495,-0.655 -0.899,-0.563 -0.403,0.093 -0.655,0.496 -0.562,0.899 z m 0.672,2.926 v 0.001 c 0.093,0.404 0.496,0.656 0.899,0.563 0.404,-0.093 0.656,-0.495 0.563,-0.899 v -0.001 c -0.093,-0.404 -0.495,-0.656 -0.899,-0.563 -0.404,0.092 -0.656,0.495 -0.563,0.899 z m 0.672,2.925 10e-4,0.001 c 0.092,0.404 0.495,0.656 0.899,0.563 0.403,-0.093 0.655,-0.495 0.563,-0.899 L 37.102,154.7 c -0.093,-0.404 -0.495,-0.656 -0.899,-0.563 -0.403,0.093 -0.655,0.495 -0.563,0.899 z m 0.673,2.925 v 10e-4 c 0.093,0.404 0.495,0.656 0.899,0.563 0.404,-0.092 0.656,-0.495 0.563,-0.899 v -0.001 c -0.093,-0.404 -0.496,-0.656 -0.899,-0.563 -0.404,0.093 -0.656,0.495 -0.563,0.899 z m 0.672,2.925 10e-4,0.002 c 0.092,0.403 0.495,0.655 0.899,0.563 0.403,-0.093 0.655,-0.496 0.563,-0.899 l -10e-4,-0.002 c -0.093,-0.404 -0.495,-0.656 -0.899,-0.563 -0.403,0.093 -0.656,0.495 -0.563,0.899"
       style="fill:#ed1d24;fill-opacity:1;fill-rule:nonzero;stroke:none"
       transform="matrix(0,1.3333333,1.3333333,0,125.87236,378.82135)" />
    <path
       id="path32"
       d="m 0,0 -0.001,0.001 c -0.225,0.348 -0.69,0.447 -1.037,0.222 -0.348,-0.226 -0.447,-0.69 -0.222,-1.038 l 0.001,-0.001 c 0.225,-0.347 0.69,-0.447 1.037,-0.221 C 0.126,-0.812 0.225,-0.347 0,0 Z M -1.633,2.519 -1.634,2.52 C -1.859,2.868 -2.324,2.967 -2.671,2.741 -3.019,2.516 -3.118,2.052 -2.892,1.704 V 1.703 c 0.226,-0.348 0.69,-0.447 1.038,-0.222 0.347,0.226 0.446,0.69 0.221,1.038 z M -3.266,5.037 -3.267,5.039 C -3.492,5.386 -3.956,5.485 -4.304,5.26 -4.651,5.035 -4.75,4.57 -4.525,4.223 L -4.524,4.221 C -4.299,3.874 -3.835,3.775 -3.487,4 -3.14,4.225 -3.04,4.69 -3.266,5.037 Z M -4.899,7.556 V 7.557 C -5.125,7.905 -5.589,8.004 -5.937,7.778 -6.284,7.553 -6.383,7.089 -6.158,6.741 L -6.157,6.74 c 0.225,-0.348 0.69,-0.447 1.037,-0.221 0.348,0.225 0.447,0.689 0.221,1.037 z m -1.632,2.518 -0.001,0.002 c -0.225,0.347 -0.69,0.446 -1.037,0.221 C -7.917,10.072 -8.016,9.607 -7.791,9.26 L -7.79,9.259 c 0.225,-0.348 0.69,-0.447 1.037,-0.222 0.348,0.225 0.447,0.69 0.222,1.037 z m -1.633,2.519 -10e-4,10e-4 c -0.225,0.348 -0.689,0.447 -1.037,0.222 -0.348,-0.226 -0.447,-0.69 -0.221,-1.038 v -0.001 c 0.226,-0.347 0.69,-0.447 1.038,-0.221 0.347,0.225 0.446,0.689 0.221,1.037 z m -1.633,2.518 v 0.002 c -0.226,0.347 -0.69,0.447 -1.038,0.221 -0.347,-0.225 -0.446,-0.689 -0.221,-1.037 l 10e-4,-0.001 c 0.225,-0.348 0.689,-0.447 1.037,-0.222 0.348,0.225 0.447,0.69 0.221,1.037 z m -1.632,2.519 -10e-4,0.001 c -0.225,0.348 -0.69,0.447 -1.037,0.222 -0.348,-0.225 -0.447,-0.69 -0.222,-1.037 l 10e-4,-0.002 c 0.225,-0.347 0.69,-0.446 1.037,-0.221 0.348,0.225 0.447,0.689 0.222,1.037 z m -1.633,2.519 -0.001,10e-4 c -0.225,0.347 -0.69,0.447 -1.037,0.221 -0.348,-0.225 -0.447,-0.689 -0.222,-1.037 l 10e-4,-0.001 c 0.226,-0.348 0.69,-0.447 1.037,-0.222 0.348,0.226 0.447,0.69 0.222,1.038 z m -1.632,2.518 -10e-4,10e-4 c -0.226,0.348 -0.69,0.447 -1.037,0.222 -0.348,-0.225 -0.448,-0.689 -0.223,-1.037 l 10e-4,-0.001 c 0.226,-0.348 0.69,-0.447 1.037,-0.222 0.348,0.225 0.448,0.689 0.223,1.037 z m -1.633,2.519 -10e-4,0.001 c -0.225,0.347 -0.69,0.447 -1.037,0.222 -0.348,-0.225 -0.447,-0.69 -0.222,-1.037 l 0.001,-0.002 c 0.225,-0.347 0.689,-0.447 1.037,-0.222 0.347,0.225 0.447,0.69 0.222,1.038 z m -1.633,2.518 -10e-4,10e-4 c -0.225,0.348 -0.689,0.447 -1.037,0.222 -0.348,-0.225 -0.447,-0.689 -0.222,-1.037 l 10e-4,-0.001 c 0.225,-0.348 0.689,-0.447 1.037,-0.222 0.348,0.225 0.447,0.689 0.222,1.037 z m -1.633,2.519 -0.001,0.001 c -0.225,0.348 -0.689,0.447 -1.037,0.222 -0.347,-0.225 -0.447,-0.69 -0.222,-1.037 l 0.001,-0.002 c 0.225,-0.347 0.69,-0.447 1.037,-0.222 0.348,0.226 0.447,0.69 0.222,1.038 z m -1.633,2.519 -0.001,0.001 c -0.225,0.347 -0.689,0.446 -1.037,0.221 -0.347,-0.225 -0.446,-0.69 -0.221,-1.037 l 10e-4,-0.001 c 0.225,-0.348 0.69,-0.447 1.037,-0.222 0.348,0.226 0.447,0.69 0.221,1.038 z m -1.632,2.518 -0.001,0.001 c -0.226,0.348 -0.69,0.447 -1.038,0.222 -0.347,-0.226 -0.446,-0.69 -0.221,-1.038 l 10e-4,-10e-4 c 0.225,-0.347 0.69,-0.446 1.037,-0.221 0.348,0.225 0.447,0.69 0.222,1.037 z m -1.633,2.519 -0.001,10e-4 c -0.225,0.348 -0.69,0.447 -1.037,0.221 -0.348,-0.225 -0.447,-0.69 -0.221,-1.037 v -10e-4 c 0.226,-0.348 0.69,-0.447 1.038,-0.222 0.347,0.226 0.446,0.69 0.221,1.038 z m -1.633,2.518 -0.001,0.002 c -0.225,0.347 -0.689,0.446 -1.037,0.221 -0.348,-0.226 -0.447,-0.69 -0.221,-1.037 l 10e-4,-0.002 c 0.225,-0.347 0.689,-0.446 1.037,-0.221 0.347,0.225 0.446,0.69 0.221,1.037 z m -1.633,2.519 v 10e-4 c -0.226,0.348 -0.69,0.447 -1.038,0.221 -0.347,-0.225 -0.446,-0.689 -0.221,-1.037 L -29.015,42 c 0.225,-0.348 0.69,-0.447 1.037,-0.221 0.348,0.225 0.447,0.689 0.221,1.037 z m -1.632,2.519 -0.001,10e-4 c -0.225,0.347 -0.69,0.446 -1.037,0.221 -0.348,-0.225 -0.447,-0.69 -0.222,-1.037 l 0.001,-0.002 c 0.226,-0.347 0.69,-0.446 1.037,-0.221 0.348,0.226 0.447,0.69 0.222,1.038 z m -1.633,2.518 -0.001,10e-4 c -0.225,0.348 -0.69,0.447 -1.037,0.222 -0.348,-0.226 -0.447,-0.69 -0.221,-1.038 v -10e-4 c 0.226,-0.348 0.69,-0.447 1.038,-0.221 0.347,0.225 0.446,0.69 0.221,1.037 z m -1.633,2.519 -10e-4,10e-4 c -0.225,0.347 -0.689,0.447 -1.037,0.221 -0.347,-0.225 -0.447,-0.69 -0.221,-1.037 l 0.001,-0.001 c 0.225,-0.348 0.69,-0.447 1.037,-0.222 0.348,0.226 0.447,0.69 0.221,1.038 z m -1.633,2.518 v 0.002 c -0.226,0.347 -0.69,0.446 -1.038,0.221 -0.347,-0.226 -0.446,-0.69 -0.221,-1.038 l 10e-4,-0.001 c 0.225,-0.347 0.69,-0.446 1.037,-0.221 0.348,0.225 0.447,0.69 0.221,1.037 z m -1.632,2.519 -10e-4,10e-4 c -0.225,0.348 -0.69,0.447 -1.037,0.221 -0.348,-0.225 -0.447,-0.689 -0.222,-1.037 l 10e-4,-10e-4 c 0.226,-0.348 0.69,-0.447 1.038,-0.222 0.347,0.226 0.446,0.69 0.221,1.038 z m -1.633,2.518 -0.001,0.002 c -0.225,0.347 -0.69,0.446 -1.037,0.221 -0.348,-0.225 -0.447,-0.69 -0.221,-1.037 l 10e-4,-0.002 c 0.225,-0.347 0.689,-0.446 1.037,-0.221 0.347,0.225 0.446,0.69 0.221,1.037 z m -1.633,2.519 v 0.001 c -0.226,0.348 -0.69,0.447 -1.038,0.221 -0.347,-0.225 -0.446,-0.689 -0.221,-1.037 l 10e-4,-10e-4 c 0.225,-0.348 0.69,-0.447 1.037,-0.221 0.348,0.225 0.447,0.689 0.221,1.037 z m -1.632,2.519 -0.001,10e-4 c -0.225,0.347 -0.69,0.446 -1.038,0.221 -0.347,-0.225 -0.446,-0.69 -0.221,-1.037 l 0.001,-0.002 c 0.225,-0.347 0.69,-0.446 1.037,-0.221 0.348,0.226 0.447,0.69 0.222,1.038 z m -1.633,2.518 -10e-4,10e-4 c -0.225,0.348 -0.69,0.447 -1.037,0.222 -0.348,-0.226 -0.447,-0.69 -0.221,-1.038 v -0.001 c 0.226,-0.348 0.69,-0.447 1.038,-0.221 0.347,0.225 0.446,0.69 0.221,1.037 z m -1.633,2.519 -10e-4,0.001 c -0.225,0.347 -0.689,0.447 -1.037,0.221 -0.347,-0.225 -0.446,-0.69 -0.221,-1.037 l 0.001,-10e-4 c 0.225,-0.348 0.689,-0.447 1.037,-0.222 0.348,0.226 0.447,0.69 0.221,1.038 z m -1.632,2.518 -10e-4,0.002 c -0.226,0.347 -0.69,0.446 -1.038,0.221 -0.347,-0.226 -0.446,-0.69 -0.221,-1.038 l 10e-4,-0.001 c 0.225,-0.347 0.69,-0.446 1.037,-0.221 0.348,0.225 0.447,0.69 0.222,1.037 z m -1.633,2.519 -0.001,0.001 c -0.225,0.348 -0.69,0.447 -1.037,0.221 -0.348,-0.225 -0.447,-0.689 -0.222,-1.037 l 0.001,-0.001 c 0.226,-0.348 0.69,-0.447 1.038,-0.221 0.347,0.225 0.446,0.689 0.221,1.037 z m -1.633,2.518 -10e-4,0.002 c -0.225,0.347 -0.69,0.446 -1.037,0.221 -0.348,-0.225 -0.447,-0.69 -0.221,-1.037 l 10e-4,-0.002 c 0.225,-0.347 0.689,-0.446 1.037,-0.221 0.347,0.225 0.446,0.69 0.221,1.037 z m -1.633,2.519 v 0.001 c -0.226,0.348 -0.69,0.447 -1.038,0.221 -0.347,-0.225 -0.446,-0.689 -0.221,-1.037 l 0.001,-10e-4 c 0.225,-0.348 0.689,-0.447 1.037,-0.221 0.348,0.225 0.447,0.689 0.221,1.037 z m -1.632,2.519 -10e-4,0.001 c -0.226,0.347 -0.69,0.446 -1.038,0.221 -0.347,-0.225 -0.446,-0.69 -0.221,-1.037 l 10e-4,-0.002 c 0.225,-0.347 0.69,-0.446 1.037,-0.221 0.348,0.226 0.447,0.69 0.222,1.038 z m -1.633,2.518 -10e-4,0.001 c -0.225,0.348 -0.69,0.447 -1.037,0.222 -0.348,-0.226 -0.447,-0.69 -0.222,-1.038 l 10e-4,-0.001 c 0.226,-0.348 0.69,-0.447 1.038,-0.221 0.347,0.225 0.446,0.69 0.221,1.037 z m -1.633,2.519 -0.001,10e-4 c -0.225,0.348 -0.689,0.447 -1.037,0.221 -0.348,-0.225 -0.447,-0.69 -0.221,-1.037 l 10e-4,-10e-4 c 0.225,-0.348 0.689,-0.447 1.037,-0.222 0.347,0.226 0.446,0.69 0.221,1.038 z m -1.633,2.518 v 0.002 c -0.226,0.347 -0.69,0.446 -1.038,0.221 -0.347,-0.226 -0.446,-0.69 -0.221,-1.038 l 10e-4,-10e-4 c 0.225,-0.347 0.69,-0.446 1.037,-0.221 0.348,0.225 0.447,0.69 0.221,1.037 z m -1.632,2.519 -0.001,0.001 c -0.225,0.348 -0.69,0.447 -1.037,0.221 -0.348,-0.225 -0.447,-0.689 -0.222,-1.037 l 10e-4,-0.001 c 0.226,-0.348 0.69,-0.447 1.038,-0.221 0.347,0.225 0.446,0.689 0.221,1.037 z m -1.633,2.518 -10e-4,0.002 c -0.225,0.347 -0.69,0.446 -1.037,0.221 -0.348,-0.225 -0.447,-0.69 -0.221,-1.037 v -0.002 c 0.226,-0.347 0.69,-0.446 1.038,-0.221 0.347,0.225 0.446,0.69 0.221,1.037 z m -1.633,2.519 v 10e-4 c -0.226,0.348 -0.69,0.447 -1.038,0.221 -0.347,-0.225 -0.447,-0.689 -0.221,-1.037 l 10e-4,-0.001 c 0.225,-0.348 0.69,-0.447 1.037,-0.221 0.348,0.225 0.447,0.689 0.221,1.037 z m -1.632,2.519 -10e-4,0.001 c -0.226,0.347 -0.69,0.446 -1.038,0.221 -0.347,-0.225 -0.446,-0.69 -0.221,-1.037 l 0.001,-0.002 c 0.225,-0.347 0.69,-0.446 1.037,-0.221 0.348,0.226 0.447,0.69 0.222,1.038 z m -1.633,2.518 -0.001,0.001 c -0.225,0.348 -0.69,0.447 -1.037,0.222 -0.348,-0.226 -0.447,-0.69 -0.221,-1.038 v -10e-4 c 0.226,-0.348 0.69,-0.447 1.038,-0.221 0.347,0.225 0.446,0.69 0.221,1.037 z m -1.633,2.519 -0.001,0.001 c -0.225,0.348 -0.69,0.447 -1.037,0.221 -0.348,-0.225 -0.447,-0.69 -0.221,-1.037 l 10e-4,-0.001 c 0.225,-0.348 0.689,-0.447 1.037,-0.222 0.347,0.226 0.447,0.69 0.221,1.038 z m -1.633,2.518 v 0.002 c -0.226,0.347 -0.69,0.446 -1.038,0.221 -0.347,-0.226 -0.446,-0.69 -0.221,-1.038 l 0.001,-0.001 c 0.225,-0.347 0.69,-0.446 1.037,-0.221 0.348,0.225 0.447,0.69 0.221,1.037 z m -1.632,2.519 -0.001,10e-4 c -0.226,0.348 -0.69,0.447 -1.037,0.221 -0.348,-0.225 -0.447,-0.689 -0.222,-1.037 l 0.001,-10e-4 c 0.226,-0.348 0.69,-0.447 1.037,-0.221 0.348,0.225 0.447,0.689 0.222,1.037 z m -1.633,2.518 -10e-4,0.002 c -0.225,0.347 -0.69,0.446 -1.037,0.221 -0.348,-0.225 -0.447,-0.69 -0.221,-1.037 v -0.002 c 0.226,-0.347 0.69,-0.446 1.038,-0.221 0.347,0.225 0.446,0.69 0.221,1.037 z m -1.633,2.519 v 0.001 c -0.226,0.348 -0.69,0.447 -1.038,0.221 -0.347,-0.225 -0.446,-0.689 -0.221,-1.037 l 0.001,-0.001 c 0.225,-0.348 0.689,-0.447 1.037,-0.221 0.348,0.225 0.447,0.689 0.221,1.037 z m -1.633,2.519 v 10e-4 c -0.226,0.347 -0.69,0.446 -1.038,0.221 -0.347,-0.225 -0.446,-0.69 -0.221,-1.037 l 10e-4,-0.002 c 0.225,-0.347 0.69,-0.446 1.037,-0.221 0.348,0.226 0.447,0.69 0.221,1.038 z m -1.632,2.518 -0.001,10e-4 c -0.225,0.348 -0.69,0.447 -1.037,0.222 -0.348,-0.226 -0.447,-0.69 -0.222,-1.038 l 0.001,-0.001 c 0.226,-0.347 0.69,-0.447 1.038,-0.221 0.347,0.225 0.446,0.69 0.221,1.037 z m -1.633,2.519 -0.001,0.001 c -0.225,0.348 -0.689,0.447 -1.037,0.221 -0.348,-0.225 -0.447,-0.69 -0.221,-1.037 l 10e-4,-0.001 c 0.225,-0.348 0.689,-0.447 1.037,-0.222 0.347,0.226 0.447,0.69 0.221,1.038 z m -1.633,2.518 v 0.002 c -0.226,0.347 -0.69,0.446 -1.038,0.221 -0.347,-0.226 -0.446,-0.69 -0.221,-1.038 l 0.001,-0.001 c 0.225,-0.347 0.69,-0.446 1.037,-0.221 0.348,0.225 0.447,0.69 0.221,1.037 z m -1.632,2.519 -0.001,0.001 c -0.225,0.348 -0.69,0.447 -1.038,0.221 -0.347,-0.225 -0.446,-0.689 -0.221,-1.037 l 0.001,-0.001 c 0.226,-0.348 0.69,-0.447 1.037,-0.221 0.348,0.225 0.447,0.689 0.222,1.037 z m -1.633,2.518 -10e-4,0.002 c -0.225,0.347 -0.69,0.446 -1.037,0.221 -0.348,-0.225 -0.447,-0.69 -0.221,-1.037 v -0.002 c 0.226,-0.347 0.69,-0.446 1.038,-0.221 0.347,0.225 0.446,0.69 0.221,1.037 z m -1.633,2.519 -0.001,0.001 c -0.225,0.348 -0.689,0.447 -1.037,0.222 -0.347,-0.226 -0.446,-0.69 -0.221,-1.038 l 0.001,-0.001 c 0.225,-0.348 0.69,-0.447 1.037,-0.221 0.348,0.225 0.447,0.689 0.221,1.037 z m -1.632,2.519 -10e-4,10e-4 c -0.226,0.347 -0.69,0.446 -1.038,0.221 -0.347,-0.225 -0.446,-0.69 -0.221,-1.037 l 10e-4,-0.002 c 0.225,-0.347 0.69,-0.446 1.037,-0.221 0.348,0.226 0.447,0.69 0.222,1.038 z m -1.633,2.518 -0.001,0.001 c -0.225,0.348 -0.69,0.447 -1.037,0.222 -0.348,-0.226 -0.447,-0.69 -0.222,-1.038 l 0.001,-10e-4 c 0.226,-0.347 0.69,-0.447 1.038,-0.221 0.347,0.225 0.446,0.69 0.221,1.037 z m -1.633,2.519 -0.001,0.001 c -0.225,0.348 -0.689,0.447 -1.037,0.221 -0.348,-0.225 -0.447,-0.69 -0.221,-1.037 l 10e-4,-0.001 c 0.225,-0.348 0.689,-0.447 1.037,-0.222 0.347,0.226 0.447,0.69 0.221,1.038 z m -1.633,2.518 v 0.002 c -0.226,0.347 -0.69,0.446 -1.038,0.221 -0.347,-0.226 -0.446,-0.69 -0.221,-1.038 l 10e-4,-0.001 c 0.225,-0.347 0.69,-0.446 1.037,-0.221 0.348,0.225 0.447,0.69 0.221,1.037 z m -1.632,2.519 -0.001,0.001 c -0.225,0.348 -0.69,0.447 -1.037,0.221 -0.348,-0.225 -0.447,-0.689 -0.222,-1.037 l 0.001,-0.001 c 0.226,-0.348 0.69,-0.447 1.037,-0.221 0.348,0.225 0.447,0.689 0.222,1.037 z m -1.633,2.518 -0.001,0.002 c -0.225,0.347 -0.69,0.446 -1.037,0.221 -0.348,-0.225 -0.447,-0.69 -0.221,-1.037 v -0.002 c 0.226,-0.347 0.69,-0.446 1.038,-0.221 0.347,0.225 0.446,0.69 0.221,1.037 z m -1.633,2.519 -10e-4,0.001 c -0.225,0.348 -0.689,0.447 -1.037,0.222 -0.347,-0.226 -0.446,-0.69 -0.221,-1.038 l 0.001,-0.001 c 0.225,-0.348 0.69,-0.447 1.037,-0.221 0.347,0.225 0.447,0.689 0.221,1.037 z m -1.633,2.519 v 0.001 c -0.226,0.347 -0.69,0.446 -1.038,0.221 -0.347,-0.225 -0.446,-0.69 -0.221,-1.037 l 0.001,-0.002 c 0.225,-0.347 0.69,-0.446 1.037,-0.221 0.348,0.226 0.447,0.69 0.221,1.038 z m -1.632,2.518 -10e-4,10e-4 c -0.225,0.348 -0.69,0.447 -1.037,0.222 -0.348,-0.226 -0.447,-0.69 -0.222,-1.038 l 10e-4,-0.001 c 0.226,-0.347 0.69,-0.447 1.038,-0.221 0.347,0.225 0.446,0.69 0.221,1.037 z m -1.633,2.519 -0.001,0.001 c -0.225,0.348 -0.689,0.447 -1.037,0.221 -0.348,-0.225 -0.447,-0.69 -0.221,-1.037 l 0.001,-10e-4 c 0.225,-0.348 0.689,-0.447 1.037,-0.222 0.347,0.226 0.446,0.69 0.221,1.038 z m -1.633,2.518 v 0.002 c -0.226,0.347 -0.69,0.446 -1.038,0.221 -0.347,-0.226 -0.446,-0.69 -0.221,-1.038 l 10e-4,-10e-4 c 0.225,-0.347 0.69,-0.446 1.037,-0.221 0.348,0.225 0.447,0.69 0.221,1.037 z m -1.632,2.519 -0.001,0.001 c -0.226,0.348 -0.69,0.447 -1.037,0.221 -0.348,-0.225 -0.447,-0.689 -0.222,-1.037 l 0.001,-0.001 c 0.225,-0.348 0.69,-0.447 1.037,-0.221 0.348,0.225 0.447,0.689 0.222,1.037"
       style="fill:#ed1d24;fill-opacity:1;fill-rule:nonzero;stroke:none"
       transform="matrix(0,1.3333333,1.3333333,0,126.19236,457.63602)" />
    <path
       id="path33"
       d="M 0,0 -1.082,4.368 C -1.181,4.77 -1.588,5.015 -1.99,4.915 -2.392,4.816 -2.637,4.409 -2.538,4.007 l 1.082,-4.368 c 0.1,-0.402 0.507,-0.647 0.909,-0.548 C -0.145,-0.809 0.1,-0.403 0,0 Z m -2.524,10.192 -1.082,4.368 c -0.1,0.402 -0.507,0.647 -0.909,0.547 -0.402,-0.099 -0.647,-0.506 -0.547,-0.908 L -3.98,9.831 c 0.099,-0.402 0.506,-0.647 0.908,-0.548 0.402,0.1 0.647,0.506 0.548,0.909 z m -2.525,10.191 -1.082,4.368 c -0.099,0.403 -0.506,0.648 -0.908,0.548 -0.402,-0.099 -0.647,-0.506 -0.548,-0.908 l 1.082,-4.368 c 0.1,-0.402 0.506,-0.647 0.908,-0.548 0.402,0.1 0.648,0.506 0.548,0.908 z m -2.524,10.192 -1.082,4.368 c -0.1,0.402 -0.507,0.648 -0.909,0.548 -0.402,-0.1 -0.647,-0.506 -0.547,-0.908 l 1.082,-4.368 c 0.099,-0.402 0.506,-0.647 0.908,-0.548 0.402,0.1 0.647,0.506 0.548,0.908 z m -2.525,10.192 -1.082,4.368 c -0.1,0.402 -0.506,0.648 -0.908,0.548 -0.402,-0.1 -0.648,-0.506 -0.548,-0.908 l 1.082,-4.368 c 0.099,-0.402 0.506,-0.648 0.908,-0.548 0.402,0.1 0.648,0.506 0.548,0.908 z m -2.525,10.192 -1.082,4.368 c -0.099,0.402 -0.506,0.648 -0.908,0.548 -0.402,-0.1 -0.647,-0.506 -0.548,-0.908 l 1.082,-4.368 c 0.1,-0.402 0.507,-0.648 0.909,-0.548 0.402,0.1 0.647,0.506 0.547,0.908 z m -2.524,10.192 -1.082,4.368 c -0.1,0.402 -0.507,0.648 -0.909,0.548 -0.402,-0.1 -0.647,-0.506 -0.547,-0.908 l 1.082,-4.368 c 0.099,-0.402 0.506,-0.648 0.908,-0.548 0.402,0.1 0.647,0.506 0.548,0.908 z m -2.525,10.192 -1.082,4.368 c -0.099,0.402 -0.506,0.648 -0.908,0.548 -0.402,-0.1 -0.647,-0.506 -0.548,-0.908 l 1.082,-4.368 c 0.1,-0.402 0.506,-0.648 0.908,-0.548 0.403,0.1 0.648,0.506 0.548,0.908 z m -2.525,10.192 -1.081,4.368 c -0.1,0.402 -0.507,0.648 -0.909,0.548 -0.402,-0.1 -0.647,-0.506 -0.548,-0.908 l 1.082,-4.368 c 0.1,-0.402 0.507,-0.648 0.909,-0.548 0.402,0.1 0.647,0.506 0.547,0.908 z m -2.524,10.192 -1.082,4.368 c -0.1,0.402 -0.506,0.648 -0.908,0.548 -0.403,-0.1 -0.648,-0.506 -0.548,-0.908 l 1.082,-4.368 c 0.099,-0.402 0.506,-0.648 0.908,-0.548 0.402,0.1 0.647,0.506 0.548,0.908 z m -2.525,10.192 -1.082,4.368 c -0.099,0.402 -0.506,0.648 -0.908,0.548 -0.402,-0.1 -0.647,-0.506 -0.548,-0.908 l 1.082,-4.368 c 0.1,-0.402 0.506,-0.648 0.909,-0.548 0.402,0.1 0.647,0.506 0.547,0.908 z m -2.524,10.192 -1.082,4.368 c -0.1,0.402 -0.507,0.647 -0.909,0.548 -0.402,-0.1 -0.647,-0.506 -0.547,-0.908 l 1.082,-4.368 c 0.099,-0.402 0.506,-0.648 0.908,-0.548 0.402,0.1 0.647,0.506 0.548,0.908 z m -2.525,10.192 -1.082,4.368 c -0.1,0.402 -0.506,0.647 -0.908,0.548 -0.402,-0.1 -0.648,-0.506 -0.548,-0.908 l 1.082,-4.368 c 0.1,-0.403 0.506,-0.648 0.908,-0.548 0.402,0.099 0.648,0.506 0.548,0.908 z m -2.525,10.192 -1.082,4.368 c -0.099,0.402 -0.506,0.647 -0.908,0.548 -0.402,-0.1 -0.647,-0.506 -0.548,-0.909 l 1.082,-4.367 c 0.1,-0.403 0.507,-0.648 0.909,-0.548 0.402,0.099 0.647,0.506 0.547,0.908 z m -2.524,10.192 -1.082,4.368 c -0.1,0.402 -0.506,0.647 -0.909,0.548 -0.402,-0.1 -0.647,-0.506 -0.547,-0.909 l 1.082,-4.368 c 0.099,-0.402 0.506,-0.647 0.908,-0.547 0.402,0.099 0.647,0.506 0.548,0.908 z m -2.525,10.192 -1.082,4.368 c -0.099,0.402 -0.506,0.647 -0.908,0.548 -0.402,-0.1 -0.647,-0.506 -0.548,-0.909 l 1.082,-4.368 c 0.1,-0.402 0.506,-0.647 0.909,-0.547 0.402,0.099 0.647,0.506 0.547,0.908 z m -2.524,10.192 -0.107,0.429 c -0.099,0.402 -0.506,0.647 -0.908,0.547 -0.402,-0.099 -0.647,-0.506 -0.548,-0.908 l 0.107,-0.429 c 0.099,-0.402 0.506,-0.647 0.908,-0.547 0.402,0.099 0.647,0.506 0.548,0.908"
       style="fill:#231f20;fill-opacity:1;fill-rule:nonzero;stroke:none"
       transform="matrix(0,1.3333333,1.3333333,0,125.39236,401.76669)" />
  </g>
</svg>
